<?xml version="1.0" encoding="utf-8"?>
<!-- Generator: Adobe Illustrator 24.1.0, SVG Export Plug-In . SVG Version: 6.00 Build 0)  -->
<svg version="1.1" xmlns="http://www.w3.org/2000/svg" xmlns:xlink="http://www.w3.org/1999/xlink" x="0px" y="0px" width="500" height="100"
	 viewBox="0 0 792 360" style="enable-background:new 0 0 792 360;" xml:space="preserve">
<style type="text/css">
	.st0{display:none;}
	.st1{display:inline;}
	.st2{fill:#6AACDE;}
	.st3{display:inline;fill:none;stroke:#6AACDE;stroke-width:4;stroke-miterlimit:10;}
	.st4{display:inline;fill:none;stroke:#1B75BB;stroke-width:10;stroke-linecap:round;stroke-miterlimit:10;}
	.st5{display:inline;fill:none;stroke:#26A9E0;stroke-width:10;stroke-miterlimit:10;}
	.st6{display:inline;fill:none;stroke:#231F20;stroke-width:10;stroke-miterlimit:10;}
	.st7{display:inline;fill:none;stroke:#231F20;stroke-width:6;stroke-miterlimit:10;}
	.st8{fill:none;stroke:#41C6F1;stroke-width:7.8693;stroke-linecap:round;stroke-miterlimit:10;}
	.st9{fill:none;stroke:#1B95D2;stroke-width:0.8686;stroke-miterlimit:10;}
	.st10{fill:#2E9DD8;}
</style>
<g id="background">
</g>
<g id="Layer_1">
</g>
<g id="Layer_2" class="st0">
	<g class="st1">
		<g>
			<path class="st2" d="M-538.23,281.32c12.79-24.86,29.96-47.17,49.8-66.8c20.71-20.49,44.18-37.95,69.01-53.13
				c26.36-16.12,54.18-29.71,82.41-42.2c14.17-6.27,28.46-12.6,43.53-16.37c13.78-3.45,28-4.26,41.99-1.54
				c13.16,2.56,25.71,7.83,36.71,15.5c2.75,1.92,5.38,3.99,7.89,6.2c2.46,2.17,4.65,4.79,7.45,6.54c2.53,1.58,5.86,2.39,8.39,0.37
				c2.85-2.28,3.07-7.1,3.83-10.4c0.93-4.02,1.86-8.03,2.79-12.05c0.73-3.13-4.09-4.47-4.82-1.33c-0.96,4.13-1.91,8.26-2.87,12.39
				c-0.45,1.92-0.86,3.85-1.34,5.77c-0.36,1.46-0.68,2.2-2.24,1.6c-2.78-1.08-4.87-3.91-7.04-5.86c-2.53-2.27-5.18-4.4-7.93-6.4
				c-10.84-7.9-23.4-13.54-36.47-16.51c-13.62-3.1-27.6-3.18-41.3-0.52c-15.28,2.97-29.76,8.99-43.97,15.17
				c-28.22,12.28-56.08,25.52-82.6,41.16c-25.21,14.86-49.22,31.94-70.6,51.96c-20.3,19.01-38.27,40.71-52.06,64.91
				c-1.69,2.97-3.31,5.98-4.88,9.01C-544.02,281.65-539.71,284.18-538.23,281.32L-538.23,281.32z"/>
		</g>
	</g>
	<g class="st1">
		<g>
			<path class="st2" d="M-610.81,394.52c0.39-5.47,0.77-10.95,1.16-16.42c0.37-5.19,0.32-10.64,1.6-15.7
				c1.22-4.86,4.1-9.18,6.56-13.48c2.67-4.68,5.34-9.35,8.01-14.03c2.71-4.75,5.42-9.5,8.13-14.25c2.58-4.51,5.04-9.13,7.8-13.53
				c2.19-3.49,4.87-6.49,8.27-8.83c3.17-2.17,6.63-3.87,10.11-5.47c7.79-3.59,16.14-6.92,21.76-13.7c0.86-1.04,1.02-2.52,0-3.54
				c-0.89-0.89-2.67-1.04-3.54,0c-4.96,5.98-12.24,9.05-19.15,12.19c-7.48,3.4-14.73,7.15-19.77,13.88
				c-3.08,4.11-5.43,8.8-7.97,13.25c-2.79,4.89-5.59,9.79-8.38,14.68c-2.71,4.75-5.42,9.5-8.13,14.25
				c-2.62,4.59-5.52,9.11-7.48,14.03c-2.24,5.6-2.24,11.85-2.66,17.78c-0.45,6.3-0.89,12.6-1.34,18.91c-0.1,1.35,1.22,2.5,2.5,2.5
				C-611.88,397.02-610.9,395.87-610.81,394.52L-610.81,394.52z"/>
		</g>
	</g>
	<g class="st1">
		<g>
			<path class="st2" d="M-611.02,396.43c3.58,2.7,8.42,2.74,12.6,1.68c4.6-1.16,8.65-3.84,13.27-4.93
				c4.91-1.15,10.06-0.11,15.04-0.66c5.14-0.57,9.99-2.23,14.81-4.04c9.78-3.66,19.65-7.08,29.64-10.17
				c5.04-1.56,10.1-3.04,15.19-4.44c2.58-0.71,5.17-1.4,7.76-2.07c1.06-0.27,2.14-0.64,3.23-0.79c0.3-0.04,0.66-0.08,0.93-0.02
				c-0.01,0,0,0.01,0.01,0.01c-0.18-0.23-0.2-0.24-0.06-0.02c0.1,0.16,0.19,0.33,0.27,0.5c1.19,2.22,3.19,3.29,5.69,2.84
				c2.16-0.38,3.87-1.77,5.59-3.03c4.02-2.95,8.18-5.71,12.46-8.26s8.68-4.92,13.18-7.06c2.12-1.01,4.25-2.03,6.49-2.76
				c2.33-0.76,4.51-0.96,6.95-0.91c2.74,0.06,5.09-0.41,7.57-1.58c2.06-0.97,3.99-1.97,6.21-2.55c4.57-1.2,9.34-1.14,14.02-1.23
				c4.83-0.09,9.58-0.49,14.31-1.52c4.71-1.02,9.3-2.5,13.88-3.95c4.58-1.45,9.17-2.9,13.88-3.87c2.23-0.46,4.48-0.8,6.76-0.95
				c0.61-0.04,1.68-0.27,2.22,0.13c0.57,0.44,0.74,1.63,0.93,2.28c2.92,10,5.11,20.24,6.47,30.56c0.34,2.56,0.62,5.12,0.86,7.69
				c0.13,1.34,1.06,2.5,2.5,2.5c1.25,0,2.63-1.15,2.5-2.5c-1-10.58-2.75-21.09-5.3-31.41c-0.64-2.58-1.33-5.15-2.07-7.71
				c-0.65-2.23-1.38-4.69-3.58-5.86c-2.16-1.15-4.83-0.71-7.16-0.43c-2.41,0.29-4.8,0.71-7.17,1.26
				c-9.45,2.18-18.44,6.05-27.98,7.83c-9.43,1.77-19.52-0.29-28.66,3.07c-2.23,0.82-4.25,2.19-6.51,2.9
				c-2.37,0.74-4.92,0.16-7.36,0.45c-5.02,0.59-9.64,2.95-14.12,5.16c-4.47,2.21-8.84,4.62-13.09,7.23
				c-4.29,2.64-8.33,5.59-12.45,8.49c-0.75,0.52-1.46,0.85-2.3,1.16c-0.21,0.08-0.42-0.05-0.2,0.01c0.18,0.05,0.34,0.58,0-0.15
				c-0.11-0.23-0.22-0.46-0.34-0.67c-1.35-2.35-3.75-2.88-6.27-2.5c-2.48,0.38-4.94,1.2-7.35,1.84c-2.59,0.69-5.17,1.4-7.75,2.13
				c-10.23,2.9-20.36,6.12-30.39,9.66c-4.9,1.73-9.74,3.64-14.65,5.35c-2.43,0.84-4.89,1.59-7.41,2.08
				c-2.43,0.47-4.88,0.55-7.34,0.52c-2.71-0.03-5.43-0.16-8.14,0.16c-2.5,0.29-4.86,0.94-7.19,1.88c-4.12,1.66-8.23,4.05-12.79,4.02
				c-1.87-0.01-3.52-0.53-5.02-1.65c-1.08-0.81-2.8-0.17-3.42,0.9C-612.66,394.29-612.1,395.61-611.02,396.43L-611.02,396.43z"/>
		</g>
	</g>
	<g class="st1">
		<g>
			<path class="st2" d="M-362.33,378.06c-4.47,10.41-9.3,20.66-14.5,30.73c-2.56,4.95-5.1,9.96-7.95,14.74c0,0-0.37,0.61-0.37,0.59
				c0.02,0.16-0.11-0.22,0.2,0.02c0.07-0.01,0.14-0.02,0.21-0.03c0.61,0.22,0.71,0.16,0.29-0.18c-0.07-0.18-0.46-0.55-0.56-0.66
				c-0.79-0.96-1.52-1.95-2.27-2.94c-1.58-2.1-3.18-4.26-5.19-5.99c-3.63-3.12-8.73-5.22-13.45-3.37c-4.28,1.68-6.76,5.65-8.26,9.81
				c-1.78,4.95-2.45,10.46-2.67,15.68c-0.18,4.29-0.35,9.52,2.73,12.94c1.72,1.91,4.46,2.61,6.88,1.72c1.38-0.5,2.52-1.35,3.64-2.28
				c0.87-0.72,1.68-1.57,2.76-2c0.48-0.19,1.08-0.35,1.3-0.05c0.56,0.77,0.35,2.58,0.42,3.46c0.23,3.25,0.46,6.51,0.69,9.76
				c0.1,1.35,1.08,2.5,2.5,2.5c1.28,0,2.6-1.15,2.5-2.5c-0.21-2.93-0.42-5.86-0.63-8.79c-0.17-2.35,0.01-5.21-1.36-7.25
				c-1.49-2.23-4.25-2.77-6.7-1.97c-2.2,0.72-3.63,2.29-5.44,3.62c-0.64,0.47-1.42,0.93-2.1,0.87c-0.34-0.03-0.78-0.41-1.06-0.83
				c-0.84-1.27-1.1-2.93-1.16-4.43c-0.23-5.45,0.33-11,1.65-16.29c0.83-3.34,2.27-7.54,5.62-9.14c3.97-1.89,8.16,1.31,10.68,4.15
				c1.68,1.9,3.12,4,4.69,6c1.61,2.04,3.85,4.27,6.59,2.54c2.13-1.35,3.21-4.28,4.38-6.4c1.35-2.45,2.67-4.91,3.97-7.38
				c5.88-11.15,11.3-22.54,16.27-34.12c0.53-1.24,0.37-2.68-0.9-3.42C-359.96,376.55-361.8,376.82-362.33,378.06L-362.33,378.06z"/>
		</g>
	</g>
	<g class="st1">
		<g>
			<path class="st2" d="M-392.28,534.25c4.16-19.19,1.03-38.7-0.93-57.95c-0.56-5.55-1.02-11.11-1.18-16.69
				c-0.09-3.21-5.09-3.22-5,0c0.56,19.25,4.77,38.29,4.15,57.58c-0.17,5.3-0.74,10.55-1.87,15.73
				C-397.78,536.06-392.96,537.4-392.28,534.25L-392.28,534.25z"/>
		</g>
	</g>
	<g class="st1">
		<g>
			<path class="st2" d="M-375.43,534.82c1.38-7.52-0.8-14.78-1.08-22.28c-0.14-3.76,0.32-7.5,0.74-11.22
				c0.41-3.57,0.67-7.13,0.73-10.72c0.12-6.91-0.3-13.96,1.1-20.77c0.67-3.26,1.83-6.26,3.27-9.25c1.52-3.15,2.89-6.27,3.17-9.8
				c0.16-2.07-0.04-4.16-0.01-6.24c0.04-1.88,0.18-3.76,0.49-5.62c0.65-3.94,1.83-7.79,3.55-11.4c0.58-1.22,0.34-2.7-0.9-3.42
				c-1.09-0.64-2.83-0.33-3.42,0.9c-3.12,6.52-4.8,13.64-4.72,20.89c0.02,1.86,0.21,3.76-0.07,5.61c-0.24,1.59-0.83,3.15-1.49,4.61
				c-1.41,3.1-3,6.09-3.95,9.38c-1.98,6.81-1.96,14-1.98,21.02c-0.01,3.63-0.04,7.26-0.36,10.88c-0.33,3.75-0.91,7.47-1.11,11.23
				c-0.22,4.24,0.32,8.4,0.89,12.59c0.54,4.04,1.07,8.21,0.33,12.26c-0.24,1.33,0.36,2.7,1.75,3.08
				C-377.29,536.9-375.67,536.15-375.43,534.82L-375.43,534.82z"/>
		</g>
	</g>
	<g class="st1">
		<g>
			<path class="st2" d="M-362.45,426.71c7.99-21.91,17.1-43.79,31.01-62.69c3.84-5.23,8.09-10.16,12.68-14.74
				c2.28-2.27-1.25-5.81-3.54-3.54c-17.1,17.03-28.55,38.58-37.68,60.7c-2.58,6.25-4.98,12.58-7.3,18.94
				c-0.46,1.27,0.52,2.74,1.75,3.08C-364.13,428.84-362.91,427.98-362.45,426.71L-362.45,426.71z"/>
		</g>
	</g>
	<g class="st1">
		<g>
			<path class="st2" d="M-363.3,524.39c3.23-8.65,6.55-17.82,5.55-27.22c-0.49-4.65-1.86-9.09-3.35-13.51
				c-1.47-4.36-2.83-8.74-3.84-13.23c-1.16-5.16-1.91-10.39-2.26-15.66c-0.09-1.35-1.08-2.5-2.5-2.5c-1.28,0-2.59,1.15-2.5,2.5
				c0.63,9.32,2.41,18.51,5.34,27.39c1.39,4.2,2.93,8.38,3.77,12.74c0.83,4.36,0.61,8.82-0.29,13.14c-1.07,5.15-2.9,10.1-4.73,15.02
				c-0.47,1.27,0.53,2.74,1.75,3.08C-364.97,526.52-363.77,525.65-363.3,524.39L-363.3,524.39z"/>
		</g>
	</g>
	<g class="st1">
		<g>
			<path class="st2" d="M-338.76,520.48c0.33-8.88,0.66-17.75,1-26.63c0.33-8.71,1.36-17.78-0.41-26.4
				c-1.61-7.85-5.71-15.04-6.54-23.07c-0.45-4.32-0.29-8.69-0.25-13.02c0.04-4.45,0.09-8.91,0.13-13.36
				c0.1-10.06,0.2-20.12,0.29-30.18c0.03-3.22-4.97-3.22-5,0c-0.09,8.91-0.17,17.81-0.26,26.72c-0.09,8.81-0.5,17.7-0.14,26.5
				c0.17,4.25,0.86,8.39,2.12,12.45c1.19,3.83,2.7,7.56,3.84,11.41c2.46,8.32,1.66,16.94,1.34,25.49
				c-0.37,10.03-0.75,20.06-1.12,30.08C-343.88,523.7-338.88,523.7-338.76,520.48L-338.76,520.48z"/>
		</g>
	</g>
	<g class="st1">
		<g>
			<path class="st2" d="M-197.92,401.29c0.07-0.51,0.15-1.02,0.22-1.54c0.1-0.33,0.12-0.66,0.04-1c-0.02-0.33-0.11-0.64-0.3-0.93
				c-0.16-0.29-0.37-0.53-0.64-0.7c-0.24-0.22-0.52-0.37-0.85-0.45c-0.22-0.03-0.44-0.06-0.66-0.09c-0.45,0-0.87,0.12-1.26,0.34
				c-0.17,0.13-0.34,0.26-0.51,0.39c-0.31,0.31-0.52,0.68-0.64,1.1c-0.07,0.51-0.15,1.02-0.22,1.54c-0.1,0.33-0.12,0.66-0.04,1
				c0.02,0.33,0.11,0.64,0.3,0.93c0.16,0.29,0.37,0.53,0.64,0.7c0.24,0.22,0.52,0.37,0.85,0.45c0.22,0.03,0.44,0.06,0.66,0.09
				c0.45,0,0.87-0.12,1.26-0.34c0.17-0.13,0.34-0.26,0.51-0.39C-198.25,402.08-198.03,401.72-197.92,401.29L-197.92,401.29z"/>
		</g>
	</g>
	<g class="st1">
		<g>
			<path class="st2" d="M-318.51,347.56c14.72-10.08,29.85-19.56,44.92-29.1c7.59-4.8,15.16-9.62,22.67-14.54
				c7.8-5.11,15.68-10.2,23.17-15.76c6.86-5.09,13.02-10.83,18.98-16.93c5.89-6.02,11.65-12.17,17.19-18.52
				c2.78-3.19,5.5-6.42,8.15-9.71c2.7-3.35,5.2-6.87,7.92-10.2c1.15-1.41,2.7-2.41,4.06-3.6c1.52-1.32,2.65-2.99,3.88-4.56
				c2.62-3.38,5.2-6.79,7.68-10.27c9.54-13.37,17.73-27.72,23.29-43.22c0.68-1.9,1.32-3.81,1.92-5.73c0.96-3.08-3.86-4.4-4.82-1.33
				c-4.8,15.36-12.32,29.63-21.33,42.92c-2.34,3.45-4.77,6.83-7.27,10.17c-2.33,3.11-4.56,6.62-7.58,9.09
				c-1.45,1.18-2.85,2.31-3.99,3.81c-1.24,1.65-2.48,3.31-3.75,4.94c-2.63,3.37-5.32,6.7-8.08,9.97
				c-5.36,6.36-10.97,12.51-16.72,18.52c-5.75,6-11.51,11.93-18.01,17.13c-7.08,5.65-14.65,10.66-22.19,15.67
				c-7.52,5-15.11,9.87-22.73,14.71c-14.85,9.43-29.8,18.72-44.41,28.53c-1.83,1.23-3.65,2.46-5.46,3.71
				c-1.11,0.76-1.61,2.2-0.9,3.42C-321.28,347.77-319.63,348.33-318.51,347.56L-318.51,347.56z"/>
		</g>
	</g>
	<path class="st3" d="M-158.21,146.6"/>
	<path class="st3" d="M-135.39,161.08c0,0,4.83-29.61,1.32-56.16c-3.51-26.54,0.22-58.79-34.22-81.6
		C-202.74,0.5-199.89-3.01-199.89-3.01s-3.29-13.38,4.39-20.62c7.68-7.24,19.96-10.75,19.96-10.75h32.47l33.78,1.75h25.01
		l20.62,2.63"/>
	<path class="st4" d="M672.35-7.92l-30.07-32.46l-62.46-94.79c0,0-52.05-62.46,0-109.3c0,0,53.78-83.28,131.86-86.75
		s130.12,53.78,130.12,53.78l317.49,72.87l-163.08,1.73H723.82c0,0-98.89,19.08-48.58,88.48s92.31,107.4,92.31,107.4"/>
	<path class="st5" d="M1194.58-197.77c0,0,4.35,6.14,6.08,25.23c1.73,19.08,0,81.54,0,81.54s0.06,53.99-43.37,67.66
		C1028.47,17.22,839.51-7.99,839.51-7.99c22.35-2.69,47.03-6.88,73.45-13.33c18.63-4.55,35.91-9.68,51.76-15.04v34.37"/>
	<path class="st6" d="M1178.54-202.04"/>
	<line class="st7" x1="1190.04" y1="-199.96" x2="1197.47" y2="-191.89"/>
</g>
<g id="Layer_4">
</g>
<g id="text">
</g>
<g id="circle">
	<path class="st8" d="M70.53,145.39"/>
	<path class="st9" d="M72.57,155.9"/>
	<path class="st10" d="M70.26,154.05c4.54,3.17,9.46,7.11,14.38,12.01c12.18,12.14,19.2,25,23.25,34.42c0,0,8.21-13.41,8.77-25.09
		c0.58-11.93-3.8-21.11-12.06-31.99c-12.22-16.11-13.86-34.97-13.86-34.97c-0.48,7.56-1.43,20.49,1.96,32.09
		c2.96,10.14,7.25,18.45,10.76,24.77c-6.71-3.07-15.84-8.16-24.98-16.53c-6.82-6.25-12.91-11.95-15.15-17.74
		c-0.41,2.9-0.19,7.54,2.11,14.34C66.6,148.79,68.72,152.36,70.26,154.05z"/>
	<path class="st10" d="M119.56,203.5c7.36,18.43,5.99,45.78-12.83,78.02l-0.83,1.35c14.49-33.35,13.24-54.37,5.88-72.8
		c0,0,6.3-0.1,7.81-7.07"/>
	<path class="st10" d="M53.95,233.15c-4.88,7.44-8.19,11.27-10.47,20.01c-1.94,7-3.14,13.4-3.06,19.17c0,0-8.26-28.04,8.53-45.17
		C48.95,227.15,47.84,231.24,53.95,233.15z"/>
	<path class="st10" d="M158.85,56.68c-3.66-3.03-24.3-28.02-66.12-21.62c-22.13,2.36-40.81,18.18-47.84,37.9
		c-7.93,22.25,2.46,41.83,4.22,45.03c3.88,8.09,8,13.1,11.99,19.65c-1.27-2.31-3.61-7.35-3.29-13.99c0.19-3.85,1.21-6.94,2.09-8.99
		c1.16,3.74,3.15,8.95,6.63,14.58c8.61,13.93,27.51,28.12,25.91,24.98c-2.16-4.26-4.31-12.31-5.84-19.09
		c-0.92-4.44-5.87-30.23,10.21-48.21c3.41-3.82,7.21-6.64,10.91-8.75l129.28-0.09L158.85,56.68z M139.8,61.48
		c-2.34,0-4.23-1.9-4.23-4.23c0-2.34,1.9-4.23,4.23-4.23c2.34,0,4.23,1.9,4.23,4.23C144.04,59.59,142.14,61.48,139.8,61.48z"/>
	<path class="st10" d="M71.27,159.86c23.86,49.44-13.5,63.07-22.35,92.77c-14.57,46.4,13.52,73.36,13.52,73.36
		c15.04-12.11,28.01-28.84,28.01-28.84C148.04,224.56,71.27,159.86,71.27,159.86z M74.57,299.63c-2.34,0-4.23-1.9-4.23-4.23
		s1.9-4.23,4.23-4.23c2.34,0,4.23,1.9,4.23,4.23S76.91,299.63,74.57,299.63z M76.59,272.62c-2.05-0.74-4.14-1.09-6.23-1.06
		c-2.09,0.06-4.2,0.5-6.29,1.23c-2.1,0.73-4.16,1.71-6.28,2.86c1.25-2.09,3.13-3.76,5.26-5.04c2.14-1.26,4.65-2.05,7.24-2.12
		c2.59-0.06,5.19,0.65,7.35,1.95c2.15,1.32,3.92,3.09,5.12,5.2C80.65,274.45,78.64,273.36,76.59,272.62z"/>
	<path class="st10" d="M130.64,53.83c0-2.34,1.9-4.23,4.23-4.23c0.12,0,0.24,0.01,0.36,0.02C32.72-9.63,17.35,150.2,17.35,150.2
		C50.47-2.09,130.01,53.96,130.69,54.45C130.66,54.25,130.64,54.04,130.64,53.83z"/>
	<g>
		<path class="st10" d="M155.83,172.05c-5.4-4.37-8.1-10.58-8.1-18.63c0-2.68,0.31-5.5,0.93-8.46c4.95-23.26,19.99-34.89,45.1-34.89
			c7.84,0,14.52,0.96,20.02,2.89l-3.61,16.62c-4.89-2-11.08-2.99-18.58-2.99c-6.12,0-11.18,1.5-15.17,4.49
			c-3.99,2.99-6.64,7.62-7.95,13.88c-0.62,2.68-0.93,5.02-0.93,7.02c0,3.58,1.07,6.16,3.2,7.74c2.13,1.58,5.64,2.37,10.53,2.37
			c3.3,0,6.57-0.45,9.81-1.34l2.06-9.7h-13.21l2.58-11.97h29.42l-7.12,33.44c-3.23,1.79-7.12,3.25-11.66,4.39s-9.67,1.7-15.38,1.7
			C168.54,178.6,161.23,176.42,155.83,172.05z"/>
		<path class="st10" d="M228.44,111.1h34.58c6.19,0,10.97,1.58,14.35,4.75c3.37,3.17,5.06,7.43,5.06,12.8
			c0,1.86-0.21,3.89-0.62,6.09c-0.96,4.4-2.91,8.31-5.83,11.71c-2.93,3.41-6.49,6.04-10.68,7.9c0.62,0.55,1.1,1.24,1.45,2.06
			c0.34,0.83,0.72,2.06,1.14,3.72l4.03,17.44h-20.23l-3.72-16c-0.35-1.24-0.84-2.12-1.5-2.63c-0.65-0.52-1.7-0.77-3.15-0.77h-5.47
			l-4.03,19.4h-19.4L228.44,111.1z M251.25,143.3c2.82,0,5.16-0.74,7.02-2.22c1.86-1.48,3.1-3.59,3.72-6.35
			c0.27-1.65,0.41-2.75,0.41-3.3c0-1.79-0.53-3.15-1.6-4.08c-1.07-0.93-2.8-1.39-5.21-1.39h-10.84l-3.72,17.34H251.25z"/>
		<path class="st10" d="M297.39,111.1h50.37l-3.1,14.86H313.7l-2.37,10.84h27.15l-3.2,15.07h-27.15l-2.27,10.84h30.96l-3.1,14.86
			h-50.37L297.39,111.1z"/>
		<path class="st10" d="M381.82,111.1h20.54l11.46,66.47h-20.23l-2.37-14.14h-20.23l-8.46,14.14h-20.23L381.82,111.1z
			 M391.31,149.49l-3.3-19.51l-11.56,19.51H391.31z"/>
		<path class="st10" d="M437.14,125.55h-18.68l2.99-14.45h56.77l-2.99,14.45h-18.68l-11.04,52.02h-19.4L437.14,125.55z"/>
		<path class="st10" d="M525.29,111.1h36.54c5.64,0,9.94,1.2,12.9,3.61c2.96,2.41,4.44,5.78,4.44,10.11c0,1.24-0.17,2.79-0.52,4.65
			c-1.38,6.47-4.71,11.22-10.01,14.24c2.2,0.96,3.89,2.24,5.06,3.82c1.17,1.58,1.75,3.61,1.75,6.09c0,1.1-0.17,2.51-0.52,4.23
			c-1.38,6.33-4.33,11.2-8.88,14.6c-4.54,3.41-10.36,5.11-17.44,5.11h-37.36L525.29,111.1z M546.13,164.05
			c2.61,0,4.66-0.55,6.14-1.65c1.48-1.1,2.49-2.92,3.04-5.47c0.14-0.96,0.21-1.58,0.21-1.86c0-1.58-0.55-2.75-1.65-3.51
			c-1.1-0.76-2.86-1.14-5.26-1.14h-13l-2.89,13.62H546.13z M550.99,137.62c4.68,0,7.5-2.13,8.46-6.4c0.14-0.48,0.21-1.14,0.21-1.96
			c0-1.51-0.52-2.65-1.55-3.41c-1.03-0.76-2.68-1.14-4.96-1.14h-12.08l-2.68,12.9H550.99z"/>
		<path class="st10" d="M595.47,111.1h19.4l-10.94,51.61h29.93l-3.1,14.86h-49.34L595.47,111.1z"/>
		<path class="st10" d="M652.19,175.81c-3.96-1.86-6.97-4.42-9.03-7.69c-2.06-3.27-3.1-7-3.1-11.2c0-1.79,0.21-3.65,0.62-5.57
			l8.57-40.25h19.4l-8.26,38.81c-0.41,1.93-0.62,3.61-0.62,5.06c0,2.55,0.79,4.37,2.37,5.47c1.58,1.1,4.16,1.65,7.74,1.65
			c4.33,0,7.6-0.93,9.8-2.79c2.2-1.86,3.78-4.99,4.75-9.39l8.26-38.81h19.4l-8.67,40.87c-1.93,9.29-5.88,16.05-11.87,20.28
			c-5.99,4.23-14.38,6.35-25.18,6.35C660.88,178.6,656.14,177.67,652.19,175.81z"/>
		<path class="st10" d="M724.28,111.1h50.37l-3.1,14.86h-30.96l-2.37,10.84h27.15l-3.2,15.07h-27.15l-2.27,10.84h30.96l-3.1,14.86
			h-50.37L724.28,111.1z"/>
		<path class="st10" d="M209.48,200.63h33.3l-2,9.63h-20.37l-1.65,7.64h17.75l-2.06,9.77h-17.75l-3.65,17.27h-12.94L209.48,200.63z"
			/>
		<path class="st10" d="M259.99,200.63h12.94l-9.36,44.31h-12.94L259.99,200.63z"/>
		<path class="st10" d="M289.48,244.91c-2.55-0.48-4.65-1.16-6.3-2.03l2.27-10.67c1.88,0.96,4.03,1.74,6.43,2.34
			c2.41,0.6,4.69,0.89,6.85,0.89c2.48,0,4.3-0.22,5.47-0.65c1.17-0.44,1.89-1.3,2.17-2.58c0.05-0.18,0.07-0.41,0.07-0.69
			c0-0.92-0.44-1.62-1.31-2.1c-0.87-0.48-2.57-1.16-5.09-2.03l-2.06-0.69c-3.26-1.15-5.65-2.51-7.19-4.09
			c-1.54-1.58-2.31-3.61-2.31-6.09c0-1.19,0.11-2.27,0.34-3.23c0.96-4.45,3.17-7.79,6.61-10.01c3.44-2.22,8.35-3.34,14.73-3.34
			c2.34,0,4.76,0.2,7.26,0.58c2.5,0.39,4.53,0.86,6.09,1.41l-2.27,10.73c-3.67-1.61-7.41-2.41-11.22-2.41
			c-2.43,0-4.3,0.18-5.61,0.55c-1.31,0.37-2.1,1.17-2.37,2.41c-0.05,0.14-0.07,0.34-0.07,0.62c0,0.78,0.4,1.38,1.2,1.79
			c0.8,0.41,2.42,0.99,4.85,1.72l1.38,0.41c3.85,1.15,6.59,2.58,8.22,4.3c1.63,1.72,2.44,3.82,2.44,6.3c0,0.96-0.16,2.25-0.48,3.85
			c-0.92,4.31-3.06,7.63-6.43,9.94c-3.37,2.32-8.48,3.48-15.31,3.48C294.81,245.63,292.02,245.39,289.48,244.91z"/>
		<path class="st10" d="M344.83,200.63h12.94l-3.51,16.51h15.28l3.51-16.51h12.94l-9.36,44.31h-12.94l3.51-16.51h-15.28l-3.51,16.51
			h-12.94L344.83,200.63z"/>
		<path class="st10" d="M405.94,200.63h12.94l-9.36,44.31h-12.94L405.94,200.63z"/>
		<path class="st10" d="M438.83,200.63h11.01l11.77,23.46l4.96-23.46h12.94l-9.36,44.31h-11.08l-11.7-23.4l-4.95,23.4h-12.94
			L438.83,200.63z"/>
		<path class="st10" d="M498.11,241.26c-3.6-2.91-5.4-7.05-5.4-12.42c0-1.79,0.21-3.67,0.62-5.64c3.3-15.5,13.33-23.26,30.07-23.26
			c5.23,0,9.68,0.64,13.35,1.93l-2.41,11.08c-3.26-1.33-7.39-2-12.39-2c-4.08,0-7.46,1-10.12,2.99c-2.66,2-4.43,5.08-5.3,9.25
			c-0.41,1.79-0.62,3.35-0.62,4.68c0,2.39,0.71,4.11,2.13,5.16c1.42,1.06,3.76,1.58,7.02,1.58c2.2,0,4.38-0.3,6.54-0.89l1.38-6.47
			h-8.81l1.72-7.98h19.61l-4.75,22.29c-2.16,1.19-4.75,2.17-7.78,2.92c-3.03,0.76-6.45,1.14-10.25,1.14
			C506.58,245.63,501.71,244.18,498.11,241.26z"/>
		<path class="st10" d="M593.85,241.23c-3.62-2.94-5.44-7.11-5.44-12.52c0-1.74,0.21-3.65,0.62-5.71c1.6-7.66,4.78-13.42,9.53-17.27
			c4.75-3.85,11.43-5.78,20.06-5.78c2.62,0,4.94,0.2,6.98,0.58c2.04,0.39,4.05,0.98,6.02,1.75l-2.41,11.29
			c-3.53-1.74-7.55-2.62-12.04-2.62c-4.22,0-7.55,0.96-9.98,2.89s-4.08,4.98-4.95,9.15c-0.37,1.74-0.55,3.19-0.55,4.33
			c0,2.57,0.83,4.43,2.48,5.57c1.65,1.15,4.33,1.72,8.05,1.72c4.59,0,8.99-0.85,13.21-2.55l-2.41,11.35
			c-4.54,1.47-9.24,2.2-14.11,2.2C602.5,245.63,597.48,244.17,593.85,241.23z"/>
		<path class="st10" d="M648.66,241.78c-3.23-2.57-4.85-6.51-4.85-11.84c0-2.06,0.27-4.4,0.83-7.02c1.74-8.12,4.82-13.98,9.22-17.58
			c4.4-3.6,10.5-5.4,18.3-5.4c6.01,0,10.61,1.3,13.8,3.89c3.19,2.59,4.78,6.55,4.78,11.87c0,2.11-0.28,4.52-0.83,7.22
			c-1.7,7.94-4.77,13.71-9.22,17.31c-4.45,3.6-10.55,5.4-18.3,5.4C656.47,245.63,651.9,244.35,648.66,241.78z M672.5,231.84
			c1.88-1.86,3.28-4.83,4.2-8.91c0.46-2.11,0.69-3.97,0.69-5.57c0-2.29-0.58-3.93-1.75-4.92c-1.17-0.99-3.11-1.48-5.81-1.48
			c-3.35,0-5.94,0.91-7.78,2.72c-1.83,1.81-3.23,4.9-4.2,9.25c-0.51,2.29-0.76,4.15-0.76,5.57c0,2.2,0.6,3.77,1.79,4.71
			c1.19,0.94,3.14,1.41,5.85,1.41C668.03,234.62,670.62,233.7,672.5,231.84z"/>
		<path class="st10" d="M699.2,235.66h10.18l-1.93,9.29h-10.18L699.2,235.66z"/>
	</g>
</g>
</svg>
