<?xml version="1.0" encoding="utf-8"?>
<!-- Generator: Adobe Illustrator 24.1.0, SVG Export Plug-In . SVG Version: 6.00 Build 0)  -->
<svg version="1.1" xmlns="http://www.w3.org/2000/svg" xmlns:xlink="http://www.w3.org/1999/xlink" x="0px" y="0px"
	 viewBox="0 0 792 360" style="enable-background:new 0 0 792 360;" xml:space="preserve">
<style type="text/css">
	.st0{display:none;}
	.st1{display:inline;}
	.st2{fill:#6AACDE;}
	.st3{display:inline;fill:none;stroke:#6AACDE;stroke-width:4;stroke-miterlimit:10;}
	.st4{display:inline;fill:none;stroke:#1B75BB;stroke-width:10;stroke-linecap:round;stroke-miterlimit:10;}
	.st5{display:inline;fill:none;stroke:#26A9E0;stroke-width:10;stroke-miterlimit:10;}
	.st6{display:inline;fill:none;stroke:#231F20;stroke-width:10;stroke-miterlimit:10;}
	.st7{display:inline;fill:none;stroke:#231F20;stroke-width:6;stroke-miterlimit:10;}
	.st8{fill:#231F20;}
</style>
<g id="background">
</g>
<g id="Layer_1">
</g>
<g id="Layer_2" class="st0">
	<g class="st1">
		<g>
			<path class="st2" d="M-538.23,281.32c12.79-24.86,29.96-47.17,49.8-66.8c20.71-20.49,44.18-37.95,69.01-53.13
				c26.36-16.12,54.18-29.71,82.41-42.2c14.17-6.27,28.46-12.6,43.53-16.37c13.78-3.45,28-4.26,41.99-1.54
				c13.16,2.56,25.71,7.83,36.71,15.5c2.75,1.92,5.38,3.99,7.89,6.2c2.46,2.17,4.65,4.79,7.45,6.54c2.53,1.58,5.86,2.39,8.39,0.37
				c2.85-2.28,3.07-7.1,3.83-10.4c0.93-4.02,1.86-8.03,2.79-12.05c0.73-3.13-4.09-4.47-4.82-1.33c-0.96,4.13-1.91,8.26-2.87,12.39
				c-0.45,1.92-0.86,3.85-1.34,5.77c-0.36,1.46-0.68,2.2-2.24,1.6c-2.78-1.08-4.87-3.91-7.04-5.86c-2.53-2.27-5.18-4.4-7.93-6.4
				c-10.84-7.9-23.4-13.54-36.47-16.51c-13.62-3.1-27.6-3.18-41.3-0.52c-15.28,2.97-29.76,8.99-43.97,15.17
				c-28.22,12.28-56.08,25.52-82.6,41.16c-25.21,14.86-49.22,31.94-70.6,51.96c-20.3,19.01-38.27,40.71-52.06,64.91
				c-1.69,2.97-3.31,5.98-4.88,9.01C-544.02,281.65-539.71,284.18-538.23,281.32L-538.23,281.32z"/>
		</g>
	</g>
	<g class="st1">
		<g>
			<path class="st2" d="M-610.81,394.52c0.39-5.47,0.77-10.95,1.16-16.42c0.37-5.19,0.32-10.64,1.6-15.7
				c1.22-4.86,4.1-9.18,6.56-13.48c2.67-4.68,5.34-9.35,8.01-14.03c2.71-4.75,5.42-9.5,8.13-14.25c2.58-4.51,5.04-9.13,7.8-13.53
				c2.19-3.49,4.87-6.49,8.27-8.83c3.17-2.17,6.63-3.87,10.11-5.47c7.79-3.59,16.14-6.92,21.76-13.7c0.86-1.04,1.02-2.52,0-3.54
				c-0.89-0.89-2.67-1.04-3.54,0c-4.96,5.98-12.24,9.05-19.15,12.19c-7.48,3.4-14.73,7.15-19.77,13.88
				c-3.08,4.11-5.43,8.8-7.97,13.25c-2.79,4.89-5.59,9.79-8.38,14.68c-2.71,4.75-5.42,9.5-8.13,14.25
				c-2.62,4.59-5.52,9.11-7.48,14.03c-2.24,5.6-2.24,11.85-2.66,17.78c-0.45,6.3-0.89,12.6-1.34,18.91c-0.1,1.35,1.22,2.5,2.5,2.5
				C-611.88,397.02-610.9,395.87-610.81,394.52L-610.81,394.52z"/>
		</g>
	</g>
	<g class="st1">
		<g>
			<path class="st2" d="M-611.02,396.43c3.58,2.7,8.42,2.74,12.6,1.68c4.6-1.16,8.65-3.84,13.27-4.93
				c4.91-1.15,10.06-0.11,15.04-0.66c5.14-0.57,9.99-2.23,14.81-4.04c9.78-3.66,19.65-7.08,29.64-10.17
				c5.04-1.56,10.1-3.04,15.19-4.44c2.58-0.71,5.17-1.4,7.76-2.07c1.06-0.27,2.14-0.64,3.23-0.79c0.3-0.04,0.66-0.08,0.93-0.02
				c-0.01,0,0,0.01,0.01,0.01c-0.18-0.23-0.2-0.24-0.06-0.02c0.1,0.16,0.19,0.33,0.27,0.5c1.19,2.22,3.19,3.29,5.69,2.84
				c2.16-0.38,3.87-1.77,5.59-3.03c4.02-2.95,8.18-5.71,12.46-8.26s8.68-4.92,13.18-7.06c2.12-1.01,4.25-2.03,6.49-2.76
				c2.33-0.76,4.51-0.96,6.95-0.91c2.74,0.06,5.09-0.41,7.57-1.58c2.06-0.97,3.99-1.97,6.21-2.55c4.57-1.2,9.34-1.14,14.02-1.23
				c4.83-0.09,9.58-0.49,14.31-1.52c4.71-1.02,9.3-2.5,13.88-3.95c4.58-1.45,9.17-2.9,13.88-3.87c2.23-0.46,4.48-0.8,6.76-0.95
				c0.61-0.04,1.68-0.27,2.22,0.13c0.57,0.44,0.74,1.63,0.93,2.28c2.92,10,5.11,20.24,6.47,30.56c0.34,2.56,0.62,5.12,0.86,7.69
				c0.13,1.34,1.06,2.5,2.5,2.5c1.25,0,2.63-1.15,2.5-2.5c-1-10.58-2.75-21.09-5.3-31.41c-0.64-2.58-1.33-5.15-2.07-7.71
				c-0.65-2.23-1.38-4.69-3.58-5.86c-2.16-1.15-4.83-0.71-7.16-0.43c-2.41,0.29-4.8,0.71-7.17,1.26
				c-9.45,2.18-18.44,6.05-27.98,7.83c-9.43,1.77-19.52-0.29-28.66,3.07c-2.23,0.82-4.25,2.19-6.51,2.9
				c-2.37,0.74-4.92,0.16-7.36,0.45c-5.02,0.59-9.64,2.95-14.12,5.16c-4.47,2.21-8.84,4.62-13.09,7.23
				c-4.29,2.64-8.33,5.59-12.45,8.49c-0.75,0.52-1.46,0.85-2.3,1.16c-0.21,0.08-0.42-0.05-0.2,0.01c0.18,0.05,0.34,0.58,0-0.15
				c-0.11-0.23-0.22-0.46-0.34-0.67c-1.35-2.35-3.75-2.88-6.27-2.5c-2.48,0.38-4.94,1.2-7.35,1.84c-2.59,0.69-5.17,1.4-7.75,2.13
				c-10.23,2.9-20.36,6.12-30.39,9.66c-4.9,1.73-9.74,3.64-14.65,5.35c-2.43,0.84-4.89,1.59-7.41,2.08
				c-2.43,0.47-4.88,0.55-7.34,0.52c-2.71-0.03-5.43-0.16-8.14,0.16c-2.5,0.29-4.86,0.94-7.19,1.88c-4.12,1.66-8.23,4.05-12.79,4.02
				c-1.87-0.01-3.52-0.53-5.02-1.65c-1.08-0.81-2.8-0.17-3.42,0.9C-612.66,394.29-612.1,395.61-611.02,396.43L-611.02,396.43z"/>
		</g>
	</g>
	<g class="st1">
		<g>
			<path class="st2" d="M-362.33,378.06c-4.47,10.41-9.3,20.66-14.5,30.73c-2.56,4.95-5.1,9.96-7.95,14.74c0,0-0.37,0.61-0.37,0.59
				c0.02,0.16-0.11-0.22,0.2,0.02c0.07-0.01,0.14-0.02,0.21-0.03c0.61,0.22,0.71,0.16,0.29-0.18c-0.07-0.18-0.46-0.55-0.56-0.66
				c-0.79-0.96-1.52-1.95-2.27-2.94c-1.58-2.1-3.18-4.26-5.19-5.99c-3.63-3.12-8.73-5.22-13.45-3.37c-4.28,1.68-6.76,5.65-8.26,9.81
				c-1.78,4.95-2.45,10.46-2.67,15.68c-0.18,4.29-0.35,9.52,2.73,12.94c1.72,1.91,4.46,2.61,6.88,1.72c1.38-0.5,2.52-1.35,3.64-2.28
				c0.87-0.72,1.68-1.57,2.76-2c0.48-0.19,1.08-0.35,1.3-0.05c0.56,0.77,0.35,2.58,0.42,3.46c0.23,3.25,0.46,6.51,0.69,9.76
				c0.1,1.35,1.08,2.5,2.5,2.5c1.28,0,2.6-1.15,2.5-2.5c-0.21-2.93-0.42-5.86-0.63-8.79c-0.17-2.35,0.01-5.21-1.36-7.25
				c-1.49-2.23-4.25-2.77-6.7-1.97c-2.2,0.72-3.63,2.29-5.44,3.62c-0.64,0.47-1.42,0.93-2.1,0.87c-0.34-0.03-0.78-0.41-1.06-0.83
				c-0.84-1.27-1.1-2.93-1.16-4.43c-0.23-5.45,0.33-11,1.65-16.29c0.83-3.34,2.27-7.54,5.62-9.14c3.97-1.89,8.16,1.31,10.68,4.15
				c1.68,1.9,3.12,4,4.69,6c1.61,2.04,3.85,4.27,6.59,2.54c2.13-1.35,3.21-4.28,4.38-6.4c1.35-2.45,2.67-4.91,3.97-7.38
				c5.88-11.15,11.3-22.54,16.27-34.12c0.53-1.24,0.37-2.68-0.9-3.42C-359.96,376.55-361.8,376.82-362.33,378.06L-362.33,378.06z"/>
		</g>
	</g>
	<g class="st1">
		<g>
			<path class="st2" d="M-392.28,534.25c4.16-19.19,1.03-38.7-0.93-57.95c-0.56-5.55-1.02-11.11-1.18-16.69
				c-0.09-3.21-5.09-3.22-5,0c0.56,19.25,4.77,38.29,4.15,57.58c-0.17,5.3-0.74,10.55-1.87,15.73
				C-397.78,536.06-392.96,537.4-392.28,534.25L-392.28,534.25z"/>
		</g>
	</g>
	<g class="st1">
		<g>
			<path class="st2" d="M-375.43,534.82c1.38-7.52-0.8-14.78-1.08-22.28c-0.14-3.76,0.32-7.5,0.74-11.22
				c0.41-3.57,0.67-7.13,0.73-10.72c0.12-6.91-0.3-13.96,1.1-20.77c0.67-3.26,1.83-6.26,3.27-9.25c1.52-3.15,2.89-6.27,3.17-9.8
				c0.16-2.07-0.04-4.16-0.01-6.24c0.04-1.88,0.18-3.76,0.49-5.62c0.65-3.94,1.83-7.79,3.55-11.4c0.58-1.22,0.34-2.7-0.9-3.42
				c-1.09-0.64-2.83-0.33-3.42,0.9c-3.12,6.52-4.8,13.64-4.72,20.89c0.02,1.86,0.21,3.76-0.07,5.61c-0.24,1.59-0.83,3.15-1.49,4.61
				c-1.41,3.1-3,6.09-3.95,9.38c-1.98,6.81-1.96,14-1.98,21.02c-0.01,3.63-0.04,7.26-0.36,10.88c-0.33,3.75-0.91,7.47-1.11,11.23
				c-0.22,4.24,0.32,8.4,0.89,12.59c0.54,4.04,1.07,8.21,0.33,12.26c-0.24,1.33,0.36,2.7,1.75,3.08
				C-377.29,536.9-375.67,536.15-375.43,534.82L-375.43,534.82z"/>
		</g>
	</g>
	<g class="st1">
		<g>
			<path class="st2" d="M-362.45,426.71c7.99-21.91,17.1-43.79,31.01-62.69c3.84-5.23,8.09-10.16,12.68-14.74
				c2.28-2.27-1.25-5.81-3.54-3.54c-17.1,17.03-28.55,38.58-37.68,60.7c-2.58,6.25-4.98,12.58-7.3,18.94
				c-0.46,1.27,0.52,2.74,1.75,3.08C-364.13,428.84-362.91,427.98-362.45,426.71L-362.45,426.71z"/>
		</g>
	</g>
	<g class="st1">
		<g>
			<path class="st2" d="M-363.3,524.39c3.23-8.65,6.55-17.82,5.55-27.22c-0.49-4.65-1.86-9.09-3.35-13.51
				c-1.47-4.36-2.83-8.74-3.84-13.23c-1.16-5.16-1.91-10.39-2.26-15.66c-0.09-1.35-1.08-2.5-2.5-2.5c-1.28,0-2.59,1.15-2.5,2.5
				c0.63,9.32,2.41,18.51,5.34,27.39c1.39,4.2,2.93,8.38,3.77,12.74c0.83,4.36,0.61,8.82-0.29,13.14c-1.07,5.15-2.9,10.1-4.73,15.02
				c-0.47,1.27,0.53,2.74,1.75,3.08C-364.97,526.52-363.77,525.65-363.3,524.39L-363.3,524.39z"/>
		</g>
	</g>
	<g class="st1">
		<g>
			<path class="st2" d="M-338.76,520.48c0.33-8.88,0.66-17.75,1-26.63c0.33-8.71,1.36-17.78-0.41-26.4
				c-1.61-7.85-5.71-15.04-6.54-23.07c-0.45-4.32-0.29-8.69-0.25-13.02c0.04-4.45,0.09-8.91,0.13-13.36
				c0.1-10.06,0.2-20.12,0.29-30.18c0.03-3.22-4.97-3.22-5,0c-0.09,8.91-0.17,17.81-0.26,26.72c-0.09,8.81-0.5,17.7-0.14,26.5
				c0.17,4.25,0.86,8.39,2.12,12.45c1.19,3.83,2.7,7.56,3.84,11.41c2.46,8.32,1.66,16.94,1.34,25.49
				c-0.37,10.03-0.75,20.06-1.12,30.08C-343.88,523.7-338.88,523.7-338.76,520.48L-338.76,520.48z"/>
		</g>
	</g>
	<g class="st1">
		<g>
			<path class="st2" d="M-197.92,401.29c0.07-0.51,0.15-1.02,0.22-1.54c0.1-0.33,0.12-0.66,0.04-1c-0.02-0.33-0.11-0.64-0.3-0.93
				c-0.16-0.29-0.37-0.53-0.64-0.7c-0.24-0.22-0.52-0.37-0.85-0.45c-0.22-0.03-0.44-0.06-0.66-0.09c-0.45,0-0.87,0.12-1.26,0.34
				c-0.17,0.13-0.34,0.26-0.51,0.39c-0.31,0.31-0.52,0.68-0.64,1.1c-0.07,0.51-0.15,1.02-0.22,1.54c-0.1,0.33-0.12,0.66-0.04,1
				c0.02,0.33,0.11,0.64,0.3,0.93c0.16,0.29,0.37,0.53,0.64,0.7c0.24,0.22,0.52,0.37,0.85,0.45c0.22,0.03,0.44,0.06,0.66,0.09
				c0.45,0,0.87-0.12,1.26-0.34c0.17-0.13,0.34-0.26,0.51-0.39C-198.25,402.08-198.03,401.72-197.92,401.29L-197.92,401.29z"/>
		</g>
	</g>
	<g class="st1">
		<g>
			<path class="st2" d="M-318.51,347.56c14.72-10.08,29.85-19.56,44.92-29.1c7.59-4.8,15.16-9.62,22.67-14.54
				c7.8-5.11,15.68-10.2,23.17-15.76c6.86-5.09,13.02-10.83,18.98-16.93c5.89-6.02,11.65-12.17,17.19-18.52
				c2.78-3.19,5.5-6.42,8.15-9.71c2.7-3.35,5.2-6.87,7.92-10.2c1.15-1.41,2.7-2.41,4.06-3.6c1.52-1.32,2.65-2.99,3.88-4.56
				c2.62-3.38,5.2-6.79,7.68-10.27c9.54-13.37,17.73-27.72,23.29-43.22c0.68-1.9,1.32-3.81,1.92-5.73c0.96-3.08-3.86-4.4-4.82-1.33
				c-4.8,15.36-12.32,29.63-21.33,42.92c-2.34,3.45-4.77,6.83-7.27,10.17c-2.33,3.11-4.56,6.62-7.58,9.09
				c-1.45,1.18-2.85,2.31-3.99,3.81c-1.24,1.65-2.48,3.31-3.75,4.94c-2.63,3.37-5.32,6.7-8.08,9.97
				c-5.36,6.36-10.97,12.51-16.72,18.52c-5.75,6-11.51,11.93-18.01,17.13c-7.08,5.65-14.65,10.66-22.19,15.67
				c-7.52,5-15.11,9.87-22.73,14.71c-14.85,9.43-29.8,18.72-44.41,28.53c-1.83,1.23-3.65,2.46-5.46,3.71
				c-1.11,0.76-1.61,2.2-0.9,3.42C-321.28,347.77-319.63,348.33-318.51,347.56L-318.51,347.56z"/>
		</g>
	</g>
	<path class="st3" d="M-158.21,146.6"/>
	<path class="st3" d="M-135.39,161.08c0,0,4.83-29.61,1.32-56.16c-3.51-26.54,0.22-58.79-34.22-81.6
		C-202.74,0.5-199.89-3.01-199.89-3.01s-3.29-13.38,4.39-20.62c7.68-7.24,19.96-10.75,19.96-10.75h32.47l33.78,1.75h25.01
		l20.62,2.63"/>
	<path class="st4" d="M672.35-7.92l-30.07-32.46l-62.46-94.79c0,0-52.05-62.46,0-109.3c0,0,53.78-83.28,131.86-86.75
		s130.12,53.78,130.12,53.78l317.49,72.87l-163.08,1.73H723.82c0,0-98.89,19.08-48.58,88.48s92.31,107.4,92.31,107.4"/>
	<path class="st5" d="M1194.58-197.77c0,0,4.35,6.14,6.08,25.23c1.73,19.08,0,81.54,0,81.54s0.06,53.99-43.37,67.66
		C1028.47,17.22,839.51-7.99,839.51-7.99c22.35-2.69,47.03-6.88,73.45-13.33c18.63-4.55,35.91-9.68,51.76-15.04v34.37"/>
	<path class="st6" d="M1178.54-202.04"/>
	<line class="st7" x1="1190.04" y1="-199.96" x2="1197.47" y2="-191.89"/>
</g>
<g id="Layer_4">
</g>
<g id="text">
</g>
<g id="circle">
	<g>
		<path class="st8" d="M65.19,173.71c-5.85-4.73-8.78-11.46-8.78-20.18c0-2.91,0.34-5.96,1.01-9.17
			c5.37-25.2,21.65-37.79,48.86-37.79c8.5,0,15.73,1.04,21.69,3.13l-3.91,18c-5.29-2.16-12-3.24-20.13-3.24
			c-6.64,0-12.11,1.62-16.44,4.86c-4.32,3.24-7.19,8.26-8.61,15.04c-0.67,2.91-1.01,5.44-1.01,7.6c0,3.88,1.15,6.67,3.47,8.39
			c2.31,1.72,6.11,2.57,11.41,2.57c3.58,0,7.12-0.48,10.62-1.45l2.24-10.51H91.29l2.8-12.97h31.87l-7.72,36.23
			c-3.5,1.94-7.72,3.52-12.64,4.75s-10.47,1.85-16.66,1.85C78.96,180.81,71.04,178.45,65.19,173.71z"/>
		<path class="st8" d="M143.85,107.68h37.46c6.71,0,11.89,1.72,15.54,5.14c3.65,3.43,5.48,8.05,5.48,13.87
			c0,2.01-0.22,4.21-0.67,6.6c-1.04,4.77-3.15,9-6.32,12.69c-3.17,3.69-7.03,6.54-11.57,8.55c0.67,0.6,1.19,1.34,1.57,2.24
			c0.37,0.89,0.78,2.24,1.23,4.03l4.36,18.9h-21.92l-4.03-17.33c-0.37-1.34-0.91-2.29-1.62-2.85c-0.71-0.56-1.85-0.84-3.41-0.84
			h-5.93l-4.36,21.02h-21.02L143.85,107.68z M168.56,142.57c3.06,0,5.59-0.8,7.6-2.4c2.01-1.6,3.35-3.89,4.03-6.88
			c0.3-1.79,0.45-2.98,0.45-3.58c0-1.94-0.58-3.41-1.73-4.42c-1.16-1.01-3.04-1.51-5.65-1.51h-11.74l-4.03,18.79H168.56z"/>
		<path class="st8" d="M218.54,107.68h54.57l-3.35,16.1h-33.55l-2.57,11.74h29.41l-3.47,16.33h-29.41l-2.46,11.74h33.55l-3.35,16.1
			h-54.57L218.54,107.68z"/>
		<path class="st8" d="M310.01,107.68h22.25l12.41,72.01h-21.92l-2.57-15.32h-21.92l-9.17,15.32h-21.92L310.01,107.68z
			 M320.3,149.28l-3.58-21.13l-12.52,21.13H320.3z"/>
		<path class="st8" d="M369.95,123.34h-20.24l3.24-15.65h61.5l-3.24,15.65h-20.24L379,179.7h-21.02L369.95,123.34z"/>
		<path class="st8" d="M465.44,107.68h39.58c6.11,0,10.77,1.31,13.98,3.91c3.2,2.61,4.81,6.26,4.81,10.96
			c0,1.34-0.19,3.02-0.56,5.03c-1.49,7.01-5.11,12.15-10.85,15.43c2.39,1.04,4.21,2.42,5.48,4.14c1.27,1.72,1.9,3.91,1.9,6.6
			c0,1.19-0.19,2.72-0.56,4.58c-1.49,6.86-4.7,12.13-9.62,15.82c-4.92,3.69-11.22,5.54-18.9,5.54h-40.48L465.44,107.68z
			 M488.03,165.05c2.83,0,5.05-0.6,6.65-1.79c1.6-1.19,2.7-3.17,3.3-5.93c0.15-1.04,0.22-1.71,0.22-2.01c0-1.71-0.6-2.98-1.79-3.8
			c-1.19-0.82-3.09-1.23-5.7-1.23h-14.09l-3.13,14.76H488.03z M493.28,136.42c5.07,0,8.12-2.31,9.17-6.93
			c0.15-0.52,0.22-1.23,0.22-2.12c0-1.64-0.56-2.87-1.68-3.69c-1.12-0.82-2.91-1.23-5.37-1.23h-13.08l-2.91,13.98H493.28z"/>
		<path class="st8" d="M541.47,107.68h21.02l-11.85,55.91h32.43l-3.35,16.1h-53.45L541.47,107.68z"/>
		<path class="st8" d="M602.92,177.79c-4.29-2.01-7.55-4.79-9.78-8.33c-2.24-3.54-3.35-7.58-3.35-12.13c0-1.94,0.22-3.95,0.67-6.04
			l9.28-43.61h21.02l-8.95,42.04c-0.45,2.09-0.67,3.91-0.67,5.48c0,2.76,0.86,4.73,2.57,5.93c1.71,1.19,4.51,1.79,8.39,1.79
			c4.7,0,8.24-1.01,10.62-3.02c2.39-2.01,4.1-5.4,5.14-10.18l8.95-42.04h21.02l-9.39,44.28c-2.09,10.06-6.37,17.39-12.86,21.97
			c-6.49,4.58-15.58,6.88-27.28,6.88C612.33,180.81,607.21,179.81,602.92,177.79z"/>
		<path class="st8" d="M681.03,107.68h54.57l-3.35,16.1h-33.55l-2.57,11.74h29.41l-3.47,16.33h-29.41l-2.46,11.74h33.55l-3.35,16.1
			h-54.57L681.03,107.68z"/>
		<path class="st8" d="M123.31,204.68h36.08l-2.16,10.44h-22.07l-1.79,8.28h19.23l-2.24,10.58h-19.23l-3.95,18.71h-14.01
			L123.31,204.68z"/>
		<path class="st8" d="M178.03,204.68h14.01l-10.14,48.01h-14.01L178.03,204.68z"/>
		<path class="st8" d="M209.97,252.65c-2.76-0.52-5.03-1.25-6.82-2.2l2.46-11.55c2.04,1.04,4.36,1.89,6.97,2.53
			c2.61,0.65,5.08,0.97,7.42,0.97c2.68,0,4.66-0.23,5.93-0.71c1.27-0.47,2.05-1.4,2.35-2.8c0.05-0.2,0.07-0.45,0.07-0.75
			c0-0.99-0.47-1.75-1.42-2.27c-0.94-0.52-2.78-1.25-5.52-2.2l-2.24-0.74c-3.53-1.24-6.13-2.72-7.79-4.44
			c-1.67-1.71-2.5-3.91-2.5-6.6c0-1.29,0.12-2.46,0.37-3.5c1.04-4.82,3.43-8.44,7.16-10.85c3.73-2.41,9.04-3.62,15.95-3.62
			c2.53,0,5.16,0.21,7.86,0.63c2.71,0.42,4.91,0.93,6.6,1.53l-2.46,11.63c-3.98-1.74-8.03-2.61-12.15-2.61
			c-2.63,0-4.66,0.2-6.08,0.6c-1.42,0.4-2.27,1.27-2.57,2.61c-0.05,0.15-0.07,0.37-0.07,0.67c0,0.85,0.43,1.49,1.3,1.94
			c0.87,0.45,2.62,1.07,5.26,1.86l1.49,0.45c4.17,1.24,7.14,2.8,8.91,4.66c1.76,1.86,2.65,4.14,2.65,6.82
			c0,1.04-0.17,2.44-0.52,4.17c-1,4.67-3.32,8.26-6.97,10.77c-3.65,2.51-9.18,3.77-16.59,3.77
			C215.75,253.43,212.73,253.17,209.97,252.65z"/>
		<path class="st8" d="M269.94,204.68h14.01l-3.8,17.89h16.55l3.8-17.89h14.01l-10.14,48.01h-14.01l3.8-17.89h-16.55l-3.8,17.89
			h-14.01L269.94,204.68z"/>
		<path class="st8" d="M336.14,204.68h14.01l-10.14,48.01H326L336.14,204.68z"/>
		<path class="st8" d="M371.77,204.68h11.93l12.75,25.42l5.37-25.42h14.01l-10.14,48.01h-12l-12.67-25.35l-5.37,25.35h-14.01
			L371.77,204.68z"/>
		<path class="st8" d="M436,248.7c-3.9-3.15-5.85-7.64-5.85-13.46c0-1.94,0.22-3.98,0.67-6.11c3.58-16.8,14.44-25.2,32.58-25.2
			c5.67,0,10.49,0.7,14.46,2.09l-2.61,12c-3.53-1.44-8-2.16-13.42-2.16c-4.42,0-8.08,1.08-10.96,3.24c-2.88,2.16-4.8,5.5-5.74,10.03
			c-0.45,1.94-0.67,3.63-0.67,5.07c0,2.58,0.77,4.45,2.31,5.59c1.54,1.14,4.08,1.71,7.6,1.71c2.39,0,4.75-0.32,7.08-0.97l1.49-7.01
			h-9.54l1.86-8.65h21.25l-5.14,24.15c-2.34,1.29-5.14,2.35-8.42,3.17c-3.28,0.82-6.98,1.23-11.11,1.23
			C445.18,253.43,439.9,251.86,436,248.7z"/>
		<path class="st8" d="M539.72,248.66c-3.93-3.18-5.89-7.7-5.89-13.57c0-1.89,0.22-3.95,0.67-6.19c1.74-8.3,5.18-14.54,10.32-18.71
			c5.14-4.17,12.39-6.26,21.73-6.26c2.83,0,5.35,0.21,7.57,0.63c2.21,0.42,4.39,1.06,6.52,1.9l-2.61,12.23
			c-3.83-1.89-8.17-2.83-13.05-2.83c-4.57,0-8.17,1.04-10.81,3.13s-4.42,5.39-5.37,9.92c-0.4,1.89-0.6,3.45-0.6,4.7
			c0,2.78,0.89,4.8,2.68,6.04c1.79,1.24,4.7,1.86,8.72,1.86c4.97,0,9.74-0.92,14.31-2.76l-2.61,12.3
			c-4.92,1.59-10.01,2.39-15.28,2.39C549.09,253.43,543.65,251.84,539.72,248.66z"/>
		<path class="st8" d="M599.1,249.26c-3.5-2.78-5.25-7.06-5.25-12.82c0-2.24,0.3-4.77,0.89-7.6c1.89-8.8,5.22-15.14,9.99-19.05
			c4.77-3.9,11.38-5.85,19.83-5.85c6.51,0,11.49,1.4,14.95,4.21c3.45,2.81,5.18,7.09,5.18,12.86c0,2.29-0.3,4.9-0.89,7.83
			c-1.84,8.6-5.17,14.85-9.99,18.75c-4.82,3.9-11.43,5.85-19.83,5.85C607.56,253.43,602.6,252.04,599.1,249.26z M624.93,238.49
			c2.04-2.01,3.55-5.23,4.55-9.65c0.5-2.29,0.75-4.3,0.75-6.04c0-2.48-0.63-4.26-1.9-5.33c-1.27-1.07-3.37-1.6-6.3-1.6
			c-3.63,0-6.44,0.98-8.42,2.94c-1.99,1.96-3.5,5.31-4.55,10.03c-0.55,2.49-0.82,4.5-0.82,6.04c0,2.38,0.65,4.09,1.94,5.11
			c1.29,1.02,3.4,1.53,6.34,1.53C620.08,241.51,622.89,240.5,624.93,238.49z"/>
		<path class="st8" d="M653.85,242.63h11.03l-2.09,10.06h-11.03L653.85,242.63z"/>
	</g>
</g>
</svg>
